ModelForces
version=1
nRows=4
nColumns=155
inDegrees=no

This file contains the forces exerted on a model during a simulation.

A force is a generalized force, meaning that it can be either a force (N) or a torque (Nm).

Units are S.I. units (second, meters, Newtons, ...)
Angles are in degrees.

endheader
time	glut_med1_r	glut_med2_r	glut_med3_r	glut_min1_r	glut_min2_r	glut_min3_r	semimem_r	semiten_r	bifemlh_r	bifemsh_r	sar_r	add_long_r	add_brev_r	add_mag1_r	add_mag2_r	add_mag3_r	tfl_r	pect_r	grac_r	glut_max1_r	glut_max2_r	glut_max3_r	iliacus_r	psoas_r	quad_fem_r	gem_r	peri_r	rect_fem_r	vas_med_r	vas_int_r	vas_lat_r	med_gas_r	lat_gas_r	soleus_r	tib_post_r	flex_dig_r	flex_hal_r	tib_ant_r	per_brev_r	per_long_r	per_tert_r	ext_dig_r	ext_hal_r	glut_med1_l	glut_med2_l	glut_med3_l	glut_min1_l	glut_min2_l	glut_min3_l	semimem_l	semiten_l	bifemlh_l	bifemsh_l	sar_l	add_long_l	add_brev_l	add_mag1_l	add_mag2_l	add_mag3_l	tfl_l	pect_l	grac_l	glut_max1_l	glut_max2_l	glut_max3_l	iliacus_l	psoas_l	quad_fem_l	gem_l	peri_l	rect_fem_l	vas_med_l	vas_int_l	vas_lat_l	med_gas_l	lat_gas_l	soleus_l	tib_post_l	flex_dig_l	flex_hal_l	tib_ant_l	per_brev_l	per_long_l	per_tert_l	ext_dig_l	ext_hal_l	ercspn_r	ercspn_l	intobl_r	intobl_l	extobl_r	extobl_l	femur_lat_meniscii_r.femur_lat_r.force.X	femur_lat_meniscii_r.femur_lat_r.force.Y	femur_lat_meniscii_r.femur_lat_r.force.Z	femur_lat_meniscii_r.femur_lat_r.torque.X	femur_lat_meniscii_r.femur_lat_r.torque.Y	femur_lat_meniscii_r.femur_lat_r.torque.Z	femur_lat_meniscii_r.meniscus_lat_r.force.X	femur_lat_meniscii_r.meniscus_lat_r.force.Y	femur_lat_meniscii_r.meniscus_lat_r.force.Z	femur_lat_meniscii_r.meniscus_lat_r.torque.X	femur_lat_meniscii_r.meniscus_lat_r.torque.Y	femur_lat_meniscii_r.meniscus_lat_r.torque.Z	femur_med_meniscii_r.femur_med_r.force.X	femur_med_meniscii_r.femur_med_r.force.Y	femur_med_meniscii_r.femur_med_r.force.Z	femur_med_meniscii_r.femur_med_r.torque.X	femur_med_meniscii_r.femur_med_r.torque.Y	femur_med_meniscii_r.femur_med_r.torque.Z	femur_med_meniscii_r.meniscus_med_r.force.X	femur_med_meniscii_r.meniscus_med_r.force.Y	femur_med_meniscii_r.meniscus_med_r.force.Z	femur_med_meniscii_r.meniscus_med_r.torque.X	femur_med_meniscii_r.meniscus_med_r.torque.Y	femur_med_meniscii_r.meniscus_med_r.torque.Z	femur_med_tibia_r.tibia_upper_r.force.X	femur_med_tibia_r.tibia_upper_r.force.Y	femur_med_tibia_r.tibia_upper_r.force.Z	femur_med_tibia_r.tibia_upper_r.torque.X	femur_med_tibia_r.tibia_upper_r.torque.Y	femur_med_tibia_r.tibia_upper_r.torque.Z	femur_med_tibia_r.femur_med_r.force.X	femur_med_tibia_r.femur_med_r.force.Y	femur_med_tibia_r.femur_med_r.force.Z	femur_med_tibia_r.femur_med_r.torque.X	femur_med_tibia_r.femur_med_r.torque.Y	femur_med_tibia_r.femur_med_r.torque.Z	femur_lat_tibia_r.tibia_upper_r.force.X	femur_lat_tibia_r.tibia_upper_r.force.Y	femur_lat_tibia_r.tibia_upper_r.force.Z	femur_lat_tibia_r.tibia_upper_r.torque.X	femur_lat_tibia_r.tibia_upper_r.torque.Y	femur_lat_tibia_r.tibia_upper_r.torque.Z	femur_lat_tibia_r.femur_lat_r.force.X	femur_lat_tibia_r.femur_lat_r.force.Y	femur_lat_tibia_r.femur_lat_r.force.Z	femur_lat_tibia_r.femur_lat_r.torque.X	femur_lat_tibia_r.femur_lat_r.torque.Y	femur_lat_tibia_r.femur_lat_r.torque.Z	aACL_R	pACL_R	aPCL_R	pPCL_R	aMCL_R	mMCL_R	pMCL_R	aLCL_R	mLCL_R	pLCL_R	aPCL_L	pPCL_L	aMCL_L	aLCL_L
      0.00005306	      0.00000000	      0.00000000	      0.00000000	      0.00000000	      0.00000000	      0.00000000	      0.00000000	   2202.78464690	      0.00000000	    929.16963757	     20.84416114	    247.76549765	     40.69084361	      0.00000000	      0.00000000	      0.00000000	      4.75890255	      0.00000000	    170.62673007	      0.00000000	      0.00000000	      0.00000000	    884.18148485	     94.64305259	      0.00000000	      0.00000000	      0.00000000	      0.00000000	      0.00000000	      0.00000000	      0.00000000	      0.00000000	      0.00000000	      0.00000000	      0.00000000	      0.00000000	      0.00000000	      0.00000000	      0.00000000	      0.00000000	      0.00000000	      0.00000000	     31.43330098	      0.00000000	      0.00000000	      0.00000000	      0.00000000	      0.00000000	      0.00000000	      0.00000000	   2036.39872887	      0.00000000	    736.54739608	     19.61334767	    247.76549765	     40.69084361	      0.00000000	      0.00000000	      0.00000000	      3.83398937	      0.00000000	    128.43571330	      0.00000000	      0.00000000	      0.00000000	    884.18148485	     94.64305259	      0.00000000	      0.00000000	      0.00000000	      0.00000000	      0.00000000	      0.00000000	      0.00000000	      0.00000000	      0.00000000	      0.00000000	      0.00000000	      0.00000000	      0.00000000	      0.00000000	      0.00000000	      0.00000000	      0.00000000	      0.00000000	     31.40965400	    456.25035657	    456.25035657	      0.00000000	      0.00000000	   3119.77695198	   3119.77695198	      0.21828925	      0.58012602	      0.09609472	     -0.05568837	      0.00596914	      0.09128860	     -0.21828925	     -0.58012602	     -0.09609472	      0.02172447	     -0.00704443	     -0.00764445	      1.05716910	      6.63572671	      1.05486915	     -0.30063565	     -0.03700532	      0.54500399	     -1.05716910	     -6.63572671	     -1.05486915	     -0.07079807	      0.03221713	     -0.14264005	      0.00000000	      0.00000000	      0.00000000	      0.00000000	      0.00000000	      0.00000000	      0.00000000	      0.00000000	      0.00000000	      0.00000000	      0.00000000	      0.00000000	      0.00000000	      0.00000000	      0.00000000	      0.00000000	      0.00000000	      0.00000000	      0.00000000	      0.00000000	      0.00000000	      0.00000000	      0.00000000	      0.00000000	    -31.90072391	    -11.68548612	      0.00000000	      0.00000000	      0.00000000	   -109.52140021	    -65.45982729	   -156.91857989	      0.00000000	   -156.66623099	      0.00000000	      0.00000000	      0.00000001	      0.00000000
      0.00008383	      0.00000000	      0.00000000	      0.00000000	      0.00000000	      0.00000000	      0.00000000	      0.00000000	   1250.72698518	      0.00000000	    226.35786854	     16.48141506	    122.20186338	     34.91222328	      0.00000000	      0.00000000	      0.00000000	      4.75183933	      0.00000000	     34.88503749	      0.00000000	      0.00000000	      0.00000000	    431.11218289	     93.93830262	      0.00000000	      0.00000000	      0.00000000	      0.00000000	      0.00000000	      0.00000000	      0.00000000	      0.00000000	      0.00000000	      0.00000000	      0.00000000	      0.00000000	      0.00000000	      0.00000000	      0.00000000	      0.00000000	      0.00000000	      0.00000000	     28.35910765	      0.00000000	      0.00000000	      0.00000000	      0.00000000	      0.00000000	      0.00000000	      0.00000000	   1043.75953170	      0.00000000	    159.09038337	     13.92838669	    122.20186338	     34.91222328	      0.00000000	      0.00000000	      0.00000000	      3.84612691	      0.00000000	     25.26583073	      0.00000000	      0.00000000	      0.00000000	    431.11218289	     93.93830262	      0.00000000	      0.00000000	      0.00000000	      0.00000000	      0.00000000	      0.00000000	      0.00000000	      0.00000000	      0.00000000	      0.00000000	      0.00000000	      0.00000000	      0.00000000	      0.00000000	      0.00000000	      0.00000000	      0.00000000	      0.00000000	     28.32307626	    264.16116910	    264.16116910	      0.00000000	      0.00000000	   1558.35208273	   1558.35208273	      0.25443562	      0.70277348	      0.12994109	     -0.07320697	      0.00698395	      0.10656958	     -0.25443562	     -0.70277348	     -0.12994109	      0.02685199	     -0.00822437	     -0.00909390	      1.19454754	      7.30273319	      1.27439077	     -0.37898980	     -0.04241052	      0.61029732	     -1.19454754	     -7.30273319	     -1.27439077	     -0.07348524	      0.03705837	     -0.15550096	      0.00000000	      0.00000000	      0.00000000	      0.00000000	      0.00000000	      0.00000000	      0.00000000	      0.00000000	      0.00000000	      0.00000000	      0.00000000	      0.00000000	      0.00000000	      0.00000000	      0.00000000	      0.00000000	      0.00000000	      0.00000000	      0.00000000	      0.00000000	      0.00000000	      0.00000000	      0.00000000	      0.00000000	    -35.48730587	    -15.68713810	      0.00000000	      0.00000000	      0.00000000	   -116.08407859	    -72.03756600	   -165.64629770	      0.00000000	   -165.48466731	      0.00000000	      0.00000000	      0.00000001	      0.00000000
      0.00013459	      0.00000000	      0.00000000	      0.00000000	      0.00000000	      0.00000000	      0.00000000	      0.00000000	    554.37804721	      0.00000000	    111.99331911	     15.60395654	     75.23870296	     32.76382726	      0.00000000	      0.00000000	      0.00000000	      4.73904363	      0.00000000	     20.86529840	      0.00000000	      0.00000000	      0.00000000	    205.00438409	     92.96733216	      0.00000000	      0.00000000	      0.00000000	      0.00000000	      0.00000000	      0.00000000	      0.00000000	      0.00000000	      0.00000000	      0.00000000	      0.00000000	      0.00000000	      0.00000000	      0.00000000	      0.00000000	      0.00000000	      0.00000000	      0.00000000	     24.73135357	      0.00000000	      0.00000000	      0.00000000	      0.00000000	      0.00000000	      0.00000000	      0.00000000	    367.27124632	      0.00000000	     82.49894027	     12.49109752	     75.23870296	     32.76382726	      0.00000000	      0.00000000	      0.00000000	      3.86608112	      0.00000000	     15.38594854	      0.00000000	      0.00000000	      0.00000000	    205.00438409	     92.96733216	      0.00000000	      0.00000000	      0.00000000	      0.00000000	      0.00000000	      0.00000000	      0.00000000	      0.00000000	      0.00000000	      0.00000000	      0.00000000	      0.00000000	      0.00000000	      0.00000000	      0.00000000	      0.00000000	      0.00000000	      0.00000000	     24.68060429	    213.79583657	    213.79583657	      0.00000000	      0.00000000	    528.36874884	    528.36874884	      0.33432091	      0.95616558	      0.19413956	     -0.10694888	      0.00916297	      0.14040048	     -0.33432091	     -0.95616558	     -0.19413956	      0.03719949	     -0.01077586	     -0.01234381	      1.38129830	      8.29454703	      1.59751281	     -0.49411095	     -0.04977441	      0.69887966	     -1.38129830	     -8.29454703	     -1.59751281	     -0.07760172	      0.04367272	     -0.17286411	      0.00000000	      0.00000000	      0.00000000	      0.00000000	      0.00000000	      0.00000000	      0.00000000	      0.00000000	      0.00000000	      0.00000000	      0.00000000	      0.00000000	      0.00000000	      0.00000000	      0.00000000	      0.00000000	      0.00000000	      0.00000000	      0.00000000	      0.00000000	      0.00000000	      0.00000000	      0.00000000	      0.00000000	    -37.49516859	    -18.10777743	      0.00000000	      0.00000000	      0.00000000	   -118.49099095	    -74.53299222	   -168.56957732	      0.00000000	   -168.48036603	      0.00000000	      0.00000000	      0.00000001	      0.00000000
      0.00027864	      0.00000000	      0.00000000	      0.00000000	      0.00000000	      0.00000000	      0.00000000	      0.00000000	    110.37288869	      0.00000000	     89.91906633	     14.64283339	     50.30148533	     30.05083116	      0.00000000	      0.00000000	      0.00000000	      4.70313718	      0.00000000	     18.16275669	      0.00000000	      0.00000000	      0.00000000	    115.47494398	     90.88791864	      0.00000000	      0.00000000	      0.00000000	      0.00000000	      0.00000000	      0.00000000	      0.00000000	      0.00000000	      0.00000000	      0.00000000	      0.00000000	      0.00000000	      0.00000000	      0.00000000	      0.00000000	      0.00000000	      0.00000000	      0.00000000	     19.20280507	      0.00000000	      0.00000000	      0.00000000	      0.00000000	      0.00000000	      0.00000000	      0.00000000	     41.70600315	      0.00000000	     57.10719271	     11.39170258	     50.30148533	     30.05083116	      0.00000000	      0.00000000	      0.00000000	      3.92221608	      0.00000000	     12.62668358	      0.00000000	      0.00000000	      0.00000000	    115.47494398	     90.88791864	      0.00000000	      0.00000000	      0.00000000	      0.00000000	      0.00000000	      0.00000000	      0.00000000	      0.00000000	      0.00000000	      0.00000000	      0.00000000	      0.00000000	      0.00000000	      0.00000000	      0.00000000	      0.00000000	      0.00000000	      0.00000000	     19.13090220	    192.93053391	    192.93053391	      0.00000000	      0.00000000	    124.30146198	    124.30146198	      0.64320184	      1.88753724	      0.43697461	     -0.23393289	      0.01749390	      0.27139576	     -0.64320184	     -1.88753724	     -0.43697461	      0.07554760	     -0.02054969	     -0.02506196	      1.92427751	     10.98281999	      2.47845405	     -0.80834021	     -0.06986535	      0.95276966	     -1.92427751	    -10.98281999	     -2.47845405	     -0.08854981	      0.06154142	     -0.21953617	      0.00000000	      0.00000000	      0.00000000	      0.00000000	      0.00000000	      0.00000000	      0.00000000	      0.00000000	      0.00000000	      0.00000000	      0.00000000	      0.00000000	      0.00000000	      0.00000000	      0.00000000	      0.00000000	      0.00000000	      0.00000000	      0.00000000	      0.00000000	      0.00000000	      0.00000000	      0.00000000	      0.00000000	    -36.78948628	    -18.12785587	      0.00000000	      0.00000000	      0.00000000	   -113.16429050	    -69.49899994	   -161.19709585	      0.00000000	   -161.16193638	      0.00000000	      0.00000000	      0.00000001	      0.00000000
